<svg xmlns="http://www.w3.org/2000/svg" version="1.1" xmlns:xlink="http://www.w3.org/1999/xlink" xmlns:svgjs="http://svgjs.dev/svgjs" width="1000" height="1000"><g clip-path="url(#SvgjsClipPath1142)"><rect width="1000" height="1000" fill="#000000"></rect><g transform="matrix(2.4752475247524752,0,0,2.4752475247524752,0,0)"><svg xmlns="http://www.w3.org/2000/svg" version="1.1" xmlns:xlink="http://www.w3.org/1999/xlink" xmlns:svgjs="http://svgjs.dev/svgjs" width="404" height="404"><svg width="404" height="404" viewBox="0 0 404 404" fill="none" xmlns="http://www.w3.org/2000/svg">
<path fill-rule="evenodd" clip-rule="evenodd" d="M349.115 276.792C360.551 254.341 367 228.924 367 202C367 150.516 343.421 104.54 306.472 74.2807L349.115 276.792ZM315.407 321.85L296.194 232.514L287.596 191.737L271.962 232.514L201.437 366.999C201.624 367 201.812 367 202 367C245.925 367 285.84 349.836 315.407 321.85ZM201.436 366.999L130.867 232.514L112.888 191.737L104.68 232.514L87.2748 320.588C116.842 349.198 157.078 366.851 201.436 366.999ZM53.6689 274.355C42.9923 252.508 37 227.954 37 202C37 152.183 59.0772 107.523 93.9813 77.269L53.6689 274.355ZM94.341 76.9581L177.768 234.474L201.219 286.622L224.67 234.474L306.192 74.052C277.783 50.8893 241.513 37 202 37C160.861 37 123.238 52.0559 94.341 76.9581Z" fill="white"></path>
</svg></svg></g></g><defs><clipPath id="SvgjsClipPath1142"><rect width="1000" height="1000" x="0" y="0" rx="350" ry="350"></rect></clipPath></defs></svg>