<svg width="1666" height="408" viewBox="0 0 1666 408" fill="none" xmlns="http://www.w3.org/2000/svg">
<path d="M248.281 313.2L176 170.16L169.28 203.44L152.311 289.034C149.526 303.08 137.203 313.2 122.884 313.2H112L160.64 78L248.32 247.6L334.4 78L384.96 313.2H373.978C359.848 313.2 347.633 303.339 344.653 289.527L326.08 203.44L319.04 170.16L248.281 313.2Z" fill="white"/>
<path d="M465.16 316.4C452.147 316.4 439.987 313.307 428.68 307.12C417.587 300.933 408.627 292.08 401.8 280.56C394.973 269.04 391.56 255.28 391.56 239.28C391.56 223.92 394.44 210.48 400.2 198.96C406.173 187.44 414.493 178.48 425.16 172.08C436.04 165.68 448.947 162.48 463.88 162.48C472.84 162.48 480.947 164.08 488.2 167.28C495.667 170.267 501.853 174 506.76 178.48C511.88 182.747 515.293 186.907 517 190.96V190.96C517.356 177.249 528.573 166.32 542.288 166.32H550.6V313.2H543.888C529.466 313.2 517.676 301.698 517.32 287.28V287.28C515.187 291.973 511.56 296.56 506.44 301.04C501.533 305.52 495.56 309.253 488.52 312.24C481.48 315.013 473.693 316.4 465.16 316.4ZM470.92 287.6C478.813 287.6 485.96 285.787 492.36 282.16C498.973 278.32 504.2 272.987 508.04 266.16C512.093 259.333 514.12 251.227 514.12 241.84V239.6C514.12 230 512.093 221.68 508.04 214.64C504.2 207.387 498.973 201.84 492.36 198C485.96 193.947 478.813 191.92 470.92 191.92C456.627 191.92 445.853 196.507 438.6 205.68C431.56 214.853 428.04 226.16 428.04 239.6C428.04 253.253 431.56 264.667 438.6 273.84C445.853 283.013 456.627 287.6 470.92 287.6Z" fill="white"/>
<path d="M579.647 313.2V196.32C579.647 179.751 593.079 166.32 609.648 166.32H615.487V283.2C615.487 299.769 602.056 313.2 585.487 313.2H579.647ZM597.568 138.8C590.954 138.8 585.407 136.56 580.927 132.08C576.661 127.6 574.527 122.053 574.527 115.44C574.527 109.467 576.661 104.347 580.927 100.08C585.407 95.8133 590.954 93.68 597.568 93.68C604.181 93.68 609.621 95.8133 613.887 100.08C618.367 104.347 620.608 109.467 620.608 115.44C620.608 122.053 618.367 127.6 613.887 132.08C609.621 136.56 604.181 138.8 597.568 138.8Z" fill="white"/>
<path d="M677.167 313.2C660.599 313.2 647.167 299.769 647.167 283.2V78H651.407C667.976 78 681.407 91.4315 681.407 108V313.2H677.167Z" fill="white"/>
<path d="M796.965 316.4C788.432 316.4 780.645 315.013 773.605 312.24C766.565 309.253 760.592 305.52 755.685 301.04C750.992 296.56 747.472 291.973 745.125 287.28V287.28C744.769 301.698 732.979 313.2 718.557 313.2H711.205V78H715.125C731.694 78 745.125 91.4315 745.125 108V168.56L743.525 193.52C745.872 187.973 749.818 182.853 755.365 178.16C760.912 173.467 767.418 169.733 774.885 166.96C782.565 163.973 790.672 162.48 799.205 162.48C813.925 162.48 826.618 165.787 837.285 172.4C847.952 178.8 856.165 187.867 861.925 199.6C867.685 211.12 870.565 224.56 870.565 239.92C870.565 255.92 867.152 269.68 860.325 281.2C853.498 292.507 844.538 301.253 833.445 307.44C822.352 313.413 810.192 316.4 796.965 316.4ZM791.205 287.6C805.712 287.6 816.485 283.013 823.525 273.84C830.778 264.667 834.405 253.36 834.405 239.92C834.405 226.053 830.778 214.64 823.525 205.68C816.485 196.507 805.712 191.92 791.205 191.92C783.525 191.92 776.378 193.84 769.765 197.68C763.152 201.307 757.818 206.533 753.765 213.36C749.925 220.187 748.005 228.293 748.005 237.68V239.92C748.218 249.307 750.245 257.627 754.085 264.88C757.925 272.133 763.045 277.787 769.445 281.84C776.058 285.68 783.312 287.6 791.205 287.6Z" fill="white"/>
<path d="M943.943 316.4C929.223 316.4 918.023 313.307 910.343 307.12C902.663 300.933 897.436 292.72 894.662 282.48C892.102 272.24 890.823 260.933 890.823 248.56V166.32H895.383C911.951 166.32 925.383 179.751 925.383 196.32V239.92C925.383 251.227 926.022 260.4 927.302 267.44C928.796 274.48 931.569 279.707 935.622 283.12C939.889 286.32 946.183 287.92 954.503 287.92C960.476 287.92 966.129 286.32 971.463 283.12C977.009 279.707 981.596 275.12 985.223 269.36C988.849 263.387 990.662 256.773 990.662 249.52V196.32C990.662 179.751 1004.09 166.32 1020.66 166.32H1024.9V313.2H1018.52C1005.92 313.2 995.125 304.168 992.903 291.76V291.76C987.569 299.867 980.956 306.053 973.062 310.32C965.169 314.373 955.463 316.4 943.943 316.4Z" fill="white"/>
<path d="M1120.22 316.4C1107.21 316.4 1095.05 313.307 1083.74 307.12C1072.65 300.933 1063.69 292.08 1056.86 280.56C1050.04 269.04 1046.62 255.28 1046.62 239.28C1046.62 223.707 1049.5 210.267 1055.26 198.96C1061.24 187.44 1069.56 178.48 1080.22 172.08C1091.1 165.68 1104.01 162.48 1118.94 162.48C1127.48 162.48 1135.48 163.973 1142.94 166.96C1150.41 169.733 1156.81 173.467 1162.14 178.16C1167.48 182.853 1171.32 187.973 1173.66 193.52L1172.06 168.56V108C1172.06 91.4314 1185.49 78 1202.06 78H1205.98V313.2H1198.95C1184.53 313.2 1172.74 301.698 1172.38 287.28V287.28C1170.25 291.973 1166.62 296.56 1161.5 301.04C1156.6 305.52 1150.62 309.253 1143.58 312.24C1136.54 315.013 1128.76 316.4 1120.22 316.4ZM1125.98 287.28C1133.88 287.28 1141.02 285.467 1147.42 281.84C1154.04 278 1159.26 272.667 1163.1 265.84C1167.16 259.013 1169.18 250.907 1169.18 241.52V239.28C1169.18 229.68 1167.16 221.36 1163.1 214.32C1159.26 207.067 1154.04 201.52 1147.42 197.68C1141.02 193.627 1133.88 191.6 1125.98 191.6C1111.69 191.6 1100.92 196.187 1093.66 205.36C1086.62 214.533 1083.1 225.84 1083.1 239.28C1083.1 252.933 1086.62 264.347 1093.66 273.52C1100.92 282.693 1111.69 287.28 1125.98 287.28Z" fill="white"/>
<path d="M1301.17 316.4C1288.16 316.4 1276 313.307 1264.69 307.12C1253.6 300.933 1244.64 292.08 1237.81 280.56C1230.99 269.04 1227.57 255.28 1227.57 239.28C1227.57 223.707 1230.45 210.267 1236.21 198.96C1242.19 187.44 1250.51 178.48 1261.17 172.08C1272.05 165.68 1284.96 162.48 1299.89 162.48C1308.43 162.48 1316.43 163.973 1323.89 166.96C1331.36 169.733 1337.76 173.467 1343.09 178.16C1348.43 182.853 1352.27 187.973 1354.61 193.52L1353.01 168.56V108C1353.01 91.4314 1366.44 78 1383.01 78H1386.93V313.2H1379.9C1365.48 313.2 1353.69 301.698 1353.33 287.28V287.28C1351.2 291.973 1347.57 296.56 1342.45 301.04C1337.55 305.52 1331.57 309.253 1324.53 312.24C1317.49 315.013 1309.71 316.4 1301.17 316.4ZM1306.93 287.28C1314.83 287.28 1321.97 285.467 1328.37 281.84C1334.99 278 1340.21 272.667 1344.05 265.84C1348.11 259.013 1350.13 250.907 1350.13 241.52V239.28C1350.13 229.68 1348.11 221.36 1344.05 214.32C1340.21 207.067 1334.99 201.52 1328.37 197.68C1321.97 193.627 1314.83 191.6 1306.93 191.6C1292.64 191.6 1281.87 196.187 1274.61 205.36C1267.57 214.533 1264.05 225.84 1264.05 239.28C1264.05 252.933 1267.57 264.347 1274.61 273.52C1281.87 282.693 1292.64 287.28 1306.93 287.28Z" fill="white"/>
<path d="M1428.04 393.84L1459.71 317.68L1398.91 166.32H1416.38C1429.27 166.32 1440.72 174.554 1444.82 186.775L1469.31 259.76L1476.35 282.48L1483.4 259.76L1509.29 186.34C1513.52 174.344 1524.86 166.32 1537.58 166.32H1554.11L1471.39 374.901C1466.85 386.333 1455.8 393.84 1443.5 393.84H1428.04Z" fill="white"/>
</svg>
